<svg xmlns="http://www.w3.org/2000/svg" width="430" height="430" style="width:100%;height:100%;transform:translate3d(0,0,0);content-visibility:visible" viewBox="0 0 430 430"><defs><clipPath id="a"><path d="M0 0h430v430H0z"/></clipPath><clipPath id="b"><path d="M0 0h430v430H0z"/></clipPath><clipPath id="c"><path d="M0 0h430v430H0z"/></clipPath></defs><g clip-path="url(#a)"><g fill="#3A3347" clip-path="url(#b)" style="display:block"><g clip-path="url(#c)" style="display:block"><g style="display:block"><path d="m272.798 138.276 66.238-23.843a2.998 2.998 0 0 1 2.319.12l37.61 18.134c.42.202.786.499 1.071.868l22.196 28.724c.713.922.827 2.174.292 3.21l-11.165 21.638a2.998 2.998 0 0 0-.287.849l-6.725 37.677a3 3 0 0 1-3.081 2.471l-121.094-5.164a3 3 0 0 1-2.744-3.865l13.258-43.847c.085-.282.128-.574.128-.868v-33.282a3 3 0 0 1 1.984-2.822z" class="primary"/><path d="m17.677-26.21-80.308 46.133a2.969 2.969 0 0 0 2.195 1.123l121.095 5.163c.088.004.173-.009.259-.013.095-.004.192 0 .285-.013a2.82 2.82 0 0 0 .447-.105c.022-.006.046-.008.068-.015.33-.108.636-.275.907-.485l.006-.004L17.677-26.21z" class="primary" opacity=".5" style="mix-blend-mode:multiply" transform="translate(320.607 201.914)"/><path d="M-27.46-28.568a2.986 2.986 0 0 0-.482 1.619V6.777l-.324 1.07-13.062 43.2a2.974 2.974 0 0 0 .548 2.744L39.527 7.658l1.929-61.445h-.001a2.998 2.998 0 0 0-1.176.173l-66.237 23.843a2.992 2.992 0 0 0-1.502 1.203z" class="primary" opacity=".75" style="mix-blend-mode:multiply" transform="translate(298.757 168.046)"/></g><g style="display:block"><path d="m182.022 139.959-71.53-25.576a3.003 3.003 0 0 0-2.099.029l-41.439 16.131a3 3 0 0 0-1.85 2.189l-6.863 33.27a3.001 3.001 0 0 1-1.124 1.783l-26.309 19.982a3 3 0 0 0-.709 4.011l26.708 41.554a3 3 0 0 0 2.618 1.377l78.868-2.491a2.998 2.998 0 0 0 1.47-.439l53.59-32.75a3 3 0 0 0 1.377-3.15l-10.776-53.686a3 3 0 0 0-1.932-2.234z" class="primary"/><path d="m-60.605-10.099 42 37.401 79.21-11.669L57.604.684a3 3 0 0 0-1.931-2.235l-71.531-25.576a3 3 0 0 0-2.098.029l-41.44 16.131c-.478.186-.89.488-1.209.868z" class="primary" opacity=".5" style="mix-blend-mode:multiply" transform="translate(126.35 141.509)"/><path d="M-10.677 51.491 39.061-14.09l-42-37.401a3.005 3.005 0 0 0-.641 1.322L-10.443-16.9a2.998 2.998 0 0 1-1.124 1.783L-37.875 4.866a2.998 2.998 0 0 0-.709 4.01l26.708 41.554c.3.466.719.824 1.199 1.061z" class="primary" opacity=".75" style="mix-blend-mode:multiply" transform="translate(68.684 182.902)"/></g></g><g style="display:block"><path d="m312.738 235.157-55.111-59.552a3.002 3.002 0 0 0-3.156-.807l-39.007 13.082-76.983 10.523a3 3 0 0 0-2.58 2.688l-5.223 54.926c-.023.237-.073.47-.151.695l-10.9 31.588a2.995 2.995 0 0 0 .142 2.299l12.56 25.61c.243.496.619.916 1.086 1.212l25.377 16.112a3.004 3.004 0 0 0 1.608.467h112.905c1.257 0 2.38-.784 2.815-1.963l6.863-18.63a3.002 3.002 0 0 1 1.444-1.631l32.548-16.73a3 3 0 0 0 1.616-2.943l-5.068-55.183a2.996 2.996 0 0 0-.785-1.763z" class="primary"/><path d="m-28.463-32.011.987 64.022 55.939-2.893a3.037 3.037 0 0 0-.507-.758l-8.65-9.346-46.461-50.206a2.982 2.982 0 0 0-1.308-.819z" class="primary" opacity=".25" style="mix-blend-mode:multiply" transform="translate(284.781 206.797)"/><path d="M-45.474 79.677h112.91c.616 0 1.199-.191 1.686-.522L-2.415-13.668c-1.57-2.037-.016-4.975 2.551-4.826l51.298 2.979-.987-64.022a2.987 2.987 0 0 0-1.846.012l-12.202 4.092-26.806 8.99L-67.39-55.92a2.998 2.998 0 0 0-1.732.871l39.076 34.44a3 3 0 0 1 .512 3.915l-8.49 12.735a2.997 2.997 0 0 0-.442 2.269l7.763 37.692a3 3 0 0 1-.124 1.644L-46.3 79.56c.267.077.545.117.826.117z" class="primary" opacity=".5" style="mix-blend-mode:multiply" transform="translate(205.872 254.323)"/><path d="m-14.297 51.123.511.324.402.256 2.679 1.7 4.781 3.035 16.565 10.517c.243.154.505.271.778.349l15.474-41.913a3 3 0 0 0 .124-1.644l-7.764-37.692a3 3 0 0 1 .443-2.27l8.49-12.735a3 3 0 0 0-.513-3.915l-39.076-34.439a2.992 2.992 0 0 0-.848 1.817l-5.223 54.926a3.009 3.009 0 0 1-.151.694l-10.901 31.588a3.002 3.002 0 0 0 .143 2.3l12.56 25.61a2.99 2.99 0 0 0 1.162 1.26l.364.232z" class="primary" opacity=".75" style="mix-blend-mode:multiply" transform="translate(148.152 266.578)"/></g></g></g></svg>